<svg xmlns="http://www.w3.org/2000/svg" width="48" height="48"><path fill="#fcbf95" d="M10.641 32.889s.061 6.179 3.696 8.894c3.461 1.439 6.604 2.484 8.345 3.36 1.74.875 5.203-.224 6.721-1.092s6.977-3.423 7.839-5.836c.862-2.413 2.192-9.978 2.192-9.978l.987-7.555s-20.698-10.181-30.418-.276c.921 10.917.638 12.483.638 12.483z"/><path fill="#d03827" d="m40.421 25.739-4.703-4.212c-.91-.815-1.835-1.64-2.932-2.175-.768-.374-1.601-.597-2.441-.752-2.476-.457-5.023-.342-7.527-.081-2.638.275-5.302.722-7.695 1.865-2.394 1.143-4.514 3.063-5.406 5.561 0 0 .281-4.046 3.561-7.03s4.468-4.597 9.004-4.801 7.428.554 9.244 1.578 5.397 3.562 6.657 5.652c1.258 2.089 2.238 4.395 2.238 4.395z"/><path fill="#fcbf95" d="M42.874 26.489c-.229-.243-.502-.459-.825-.544-.486-.129-1.239-.141-1.628.178-.388.319-.538.92-.791 1.354l-1.361 8.708c.557.098 1.372-.049 1.824-.388.452-.339.8-.797 1.133-1.254.882-1.214 1.715-2.509 2.057-3.97.342-1.461.619-2.992-.409-4.084z"/><path fill="#c56528" d="M40.801 25.089c-.638.356-.881 1.137-1.057 1.846a68.746 68.746 0 0 0-1.24 6.197l-.399-1.42c-.081-.289-.164-.581-.298-.85-.167-.334-.413-.626-.562-.969-.303-.698-.169-1.497-.07-2.251.181-1.39.316-3.222.215-4.62-.001.001 2.094 2.19 3.411 2.067z"/><path fill="#fcbf95" d="M9.752 26.399c-.329-.777-1.325-.964-2.165-1.043-.734-.069-1.597-.088-2.064.482-.277.338-.334.8-.36 1.236a13.649 13.649 0 0 0 .96 5.877c.283.704.635 1.397 1.179 1.926a3.492 3.492 0 0 0 3.446.8l-.996-9.278z"/><path fill="#d6e5e5" d="M31.257 26.695c-.042-.713-.237-1.518-.867-1.855a1.58 1.58 0 0 0-.822-.16c-.919.046-1.736.651-2.267 1.402-.531.751-.822 1.641-1.106 2.516l3.243 3.046c1.385-1.184 1.926-3.13 1.819-4.949z"/><path fill="#c56528" d="m12.249 22.638-2.455 3.098c.176 1.716.305 4.176.481 5.892.037.361.092.759.365.998l.936-1.998c.278-.593.557-1.19.732-1.821.235-.851.275-1.743.263-2.626a23.114 23.114 0 0 0-.322-3.543z"/><path fill="#513620" d="M29.481 33.516a10.415 10.415 0 0 0 5.886-2.848c.06 1.044.118 2.106-.134 3.121-.252 1.015-.868 1.992-1.821 2.422-.194.088-.411.16-.537.332-.139.19-.128.445-.161.678-.107.754-.741 1.362-1.464 1.6s-1.518.157-2.251-.05c-.675 1.284-2.452 1.842-3.74 1.174-.223-.116-.439-.265-.689-.297-.265-.034-.525.07-.783.14-1.49.404-3.214-.468-3.772-1.906-1.117.432-2.478.654-3.436-.066-.363-.273-.626-.653-.883-1.027-1.043-1.518-2.137-3.281-1.721-5.075 1.198 1.36 3.136 2.025 4.917 1.686 0 0 .913 2.299 3.025 3.384 2.758 1.416 7.559.51 7.564-3.268z"/><path fill="#d6e5e5" d="M21.228 25.97c-.283-.506-.671-.971-1.185-1.24-.513-.269-1.165-.316-1.665-.023-.166.097-.31.226-.448.359-.362.347-.704.741-.849 1.22-.141.465-.513 2.375.731 4.596.215.383.576.761 1.22 1.039l2.784-3.043a4.893 4.893 0 0 0-.588-2.908z"/><path fill="#010101" d="M15.186 23.523a.5.5 0 0 1-.326-.879c1.315-1.133 2.998-1.725 4.467-1.592 1.046.096 1.915.54 2.516 1.286a.5.5 0 0 1-.779.627c-.427-.53-1.059-.848-1.827-.918-1.215-.109-2.61.395-3.724 1.354a.5.5 0 0 1-.327.122zm12.297-.091a.498.498 0 0 1-.387-.815c.917-1.127 2.09-1.868 3.303-2.089 1.446-.261 2.947.279 3.747 1.341a.5.5 0 1 1-.799.601c-.579-.769-1.694-1.154-2.77-.958-.979.178-1.939.794-2.706 1.735a.498.498 0 0 1-.388.185z"/><path fill="#ef4823" d="M9.393 25.311c-.107-1.024.664-2.033 1.215-2.903a25.175 25.175 0 0 1 4.685-5.468c.817-.714 1.688-1.38 2.668-1.846 1.428-.678 3.028-.902 4.606-1.001 1.175-.073 2.356-.081 3.527.036 6.341.63 12.137 5.283 14.196 11.314 1.273-1.451 1.718-3.423 1.569-5.347-.15-1.924-.818-3.766-1.514-5.566-.462-1.195-.943-2.391-1.6-3.491-.798-1.336-1.843-2.511-2.978-3.576-1.835-1.722-3.944-3.188-6.305-4.058s-4.989-1.117-7.414-.444c-2.823.784-5.16 2.719-7.403 4.604l-2.697 2.266c-.51.429-1.023.859-1.474 1.35A9.727 9.727 0 0 0 9.125 13.1c-2.045 3.735-1.783 8.481.268 12.211z"/><path fill="#d6e5e5" d="M29.283 14.788c.016-.091.319-.453.367-.532.448-.753.578-1.65.635-2.524.071-1.09.022-2.256-.586-3.163-.335-.5-.816-.882-1.306-1.231-.949-.676-1.989-1.269-3.134-1.484-2.002-.376-4.187.551-5.307 2.252-1.12 1.701-1.171 4.249.09 6.201-.002 0 6.133-1.059 9.241.481z"/><path fill="#010101" d="M43.237 26.146c-.34-.361-.687-.586-1.061-.686a3.149 3.149 0 0 0-1.237-.039c1.071-1.412 1.578-3.294 1.416-5.365-.154-1.979-.819-3.829-1.547-5.708-.479-1.236-.964-2.439-1.636-3.567-.738-1.234-1.74-2.439-3.066-3.684-2.07-1.942-4.248-3.343-6.475-4.162-2.595-.958-5.337-1.119-7.72-.457-2.978.827-5.429 2.886-7.591 4.703l-2.709 2.275c-.511.43-1.039.874-1.508 1.385-.523.567-.987 1.228-1.42 2.018-1.98 3.619-1.944 8.233.029 12.184a6.212 6.212 0 0 0-1.081-.186c-.59-.055-1.813-.17-2.498.664-.362.442-.441.994-.472 1.523a14.197 14.197 0 0 0 .994 6.093c.259.643.64 1.461 1.294 2.098.729.71 1.755 1.101 2.773 1.101.332 0 .66-.052.98-.137.365 1.424.879 2.736 1.509 3.773.813 1.337 1.693 2.258 2.695 2.815.825.46 1.729.673 2.603.879.534.126 1.039.245 1.526.416.551.193 1.074.451 1.63.725.758.372 1.541.758 2.4.966a6.572 6.572 0 0 0 1.542.177c1.162 0 2.418-.276 3.705-.823 1.194-.506 2.309-1.182 3.388-1.835.361-.219.723-.438 1.087-.65l.52-.3c1.362-.782 2.771-1.591 3.748-2.889.61-.81 1.024-1.787 1.317-2.761.084.008.162.021.253.021.58 0 1.287-.159 1.765-.517.501-.376.871-.857 1.237-1.36.896-1.231 1.773-2.587 2.14-4.149.299-1.268.748-3.185-.53-4.541zM9.563 13.341a9.092 9.092 0 0 1 1.278-1.821c.426-.464.907-.868 1.427-1.306l2.697-2.266c2.085-1.752 4.447-3.736 7.216-4.506 2.185-.605 4.709-.452 7.106.432 2.1.773 4.164 2.104 6.137 3.953 1.256 1.18 2.202 2.314 2.891 3.468.633 1.061 1.101 2.221 1.563 3.416.699 1.807 1.339 3.581 1.483 5.425.126 1.624-.2 3.108-.925 4.273-1.854-4.535-5.79-8.196-10.379-9.865a.626.626 0 0 0 .022-.033c.521-.873.647-1.878.704-2.747.068-1.05.055-2.394-.67-3.474-.382-.571-.914-.991-1.432-1.36-.771-.55-1.956-1.31-3.331-1.567-2.2-.414-4.589.602-5.818 2.468-1.17 1.778-1.217 4.267-.184 6.249-.54.144-1.08.316-1.602.564-.886.421-1.744 1.014-2.782 1.922a25.571 25.571 0 0 0-4.778 5.576l-.214.33c-.267.408-.55.843-.761 1.303-1.415-3.441-1.309-7.401.352-10.434zm2.508 12.847c.01.709-.009 1.632-.244 2.485-.164.593-.438 1.178-.704 1.743l-.384.82c-.073-.783-.14-1.687-.205-2.591-.073-.993-.145-1.979-.228-2.813a8.344 8.344 0 0 1 1.54-2.419c.127.923.213 1.851.225 2.775zm-1.454-2.868c.065-.101.129-.205.193-.303l.221-.341a24.582 24.582 0 0 1 4.592-5.359c.966-.845 1.754-1.391 2.554-1.771 1.453-.69 3.127-.872 4.421-.953 1.287-.078 2.416-.067 3.447.034 5.492.546 10.614 4.253 13.048 9.25l-3.04-2.722c-.924-.827-1.878-1.683-3.047-2.252-.722-.352-1.538-.604-2.569-.793-2.718-.504-5.527-.311-7.67-.088-2.437.253-5.276.679-7.859 1.911-1.757.837-3.23 2.016-4.291 3.387zM27.735 8.713a.5.5 0 0 0-.435-.36.518.518 0 0 0-.493.274c-.304.605-.675 1.174-1.066 1.775-.261.398-.526.806-.771 1.228-.335-.416-.577-.83-.826-1.392-.072-.163-.134-.334-.196-.505-.176-.485-.376-1.035-.813-1.449a.488.488 0 0 0-.424-.13.494.494 0 0 0-.36.257 32.619 32.619 0 0 0-2.185 5.086c-.807-1.646-.75-3.67.202-5.116 1.013-1.54 2.984-2.377 4.798-2.036.898.169 1.832.613 2.936 1.399.44.313.888.665 1.182 1.103.556.83.561 1.96.502 2.853-.04.62-.129 1.308-.385 1.916-.63-1.41-1.173-3.183-1.666-4.903zm.764 5.34a15.703 15.703 0 0 0-2.355-.42 19.358 19.358 0 0 0-1.945-.092 27 27 0 0 0-1.663.054c-.426.027-.899.073-1.385.134.471-1.4 1.03-2.773 1.691-4.091.059.139.111.286.166.437.07.192.141.386.223.57.397.896.799 1.49 1.479 2.195a.5.5 0 0 0 .807-.124c.303-.604.672-1.169 1.063-1.768.176-.271.354-.544.528-.823.415 1.397.872 2.772 1.391 3.928zM7.649 34.52c-.521-.506-.842-1.203-1.063-1.754a13.182 13.182 0 0 1-.924-5.661c.021-.361.065-.727.247-.948.307-.373.995-.362 1.631-.302.697.065 1.526.209 1.752.74a.489.489 0 0 0 .092.135c.053.63.103 1.307.152 1.988.077 1.05.153 2.099.242 2.961.031.3.094.765.377 1.134.057.812.17 1.62.327 2.409-.981.276-2.102.007-2.833-.702zm28.611 4.333c-.854 1.134-2.172 1.891-3.447 2.623l-.525.304c-.369.215-.735.438-1.102.659-1.048.635-2.132 1.291-3.26 1.77-1.681.713-3.277.921-4.622.594-.751-.182-1.452-.526-2.193-.891-.558-.274-1.134-.558-1.741-.771-.537-.188-1.091-.319-1.626-.445-.846-.199-1.644-.388-2.347-.779-.846-.472-1.607-1.276-2.326-2.462-1.021-1.68-1.75-4.251-1.92-6.737l.879-1.877c.282-.603.574-1.227.761-1.899.271-.977.292-1.991.281-2.767a23.694 23.694 0 0 0-.329-3.619c-.001-.008-.007-.014-.008-.022a11.573 11.573 0 0 1 2.603-1.698c2.446-1.167 5.181-1.574 7.532-1.819 2.074-.216 4.791-.402 7.385.077.94.172 1.676.397 2.313.708 1.043.509 1.944 1.316 2.816 2.098l1.513 1.355c.062 1.16-.007 2.75-.216 4.327l-.02.14c-.1.75-.21 1.59.13 2.37.09.22.21.41.34.61.08.13.16.25.23.39.11.22.18.48.26.76l.376 1.334c-.179 2.371-.809 4.434-1.737 5.667zm2.11-7.943c-.03-.09-.07-.18-.12-.27-.08-.17-.18-.32-.28-.48-.1-.15-.2-.3-.27-.46-.23-.53-.14-1.17-.05-1.84l.02-.15c.164-1.237.249-2.476.254-3.536l1.704 1.526c-.193.402-.295.818-.368 1.11-.34 1.35-.63 2.72-.89 4.1zm4.426-.451c-.324 1.39-1.141 2.644-1.974 3.789-.319.438-.638.856-1.028 1.148-.212.159-.585.274-.943.309l1.26-8.063a6.49 6.49 0 0 0 .203-.426c.125-.278.254-.567.425-.707.196-.163.736-.201 1.182-.082.188.05.38.182.589.404.84.893.614 2.226.286 3.628z"/><path fill="#4b7bb2" d="M19.932 30.152a3.08 3.08 0 0 1-.49-2.518c.055-.222.147-.452.336-.581.197-.133.453-.127.69-.115.193.009.389.019.569.088.18.069.736.681.784.867l.299 1.093c.002 0-1.709.568-2.188 1.166zm7.969-.121c.148-.201.551-.734.699-.935a2.5 2.5 0 0 0 .179-.268c.281-.51.164-1.178-.193-1.638a.953.953 0 0 0-.282-.259c-.199-.11-.439-.104-.665-.091-.282.016-.597.057-.773.278l-.837 1.873s1.632.462 1.872 1.04z"/><path fill="#010101" d="M35.866 30.641a.502.502 0 0 0-.847-.331 9.89 9.89 0 0 1-5.143 2.631 4.15 4.15 0 0 0-.093-.581c-.025-.104-.06-.198-.089-.296.023-.014.049-.023.07-.041 1.375-1.176 2.121-3.178 1.994-5.357-.083-1.418-.661-2.016-1.132-2.268a2.036 2.036 0 0 0-1.082-.217c-.995.05-1.961.637-2.65 1.611-.575.812-.877 1.736-1.167 2.63a4.966 4.966 0 0 0-.834-.088h-.017l-.617-.003c-.655-.009-1.29-.011-1.93.103a5.378 5.378 0 0 0-.664-2.71c-.374-.668-.842-1.151-1.389-1.438-.705-.369-1.529-.376-2.149-.013-.213.124-.388.28-.542.43-.358.343-.794.816-.982 1.438-.072.239-.666 2.414.773 4.984.261.465.663.834 1.184 1.112a3.55 3.55 0 0 0-.006.699c-1.543.206-3.169-.383-4.201-1.554a.497.497 0 0 0-.497-.154.498.498 0 0 0-.365.371c-.457 1.971.688 3.857 1.796 5.472.264.385.563.82.993 1.144 1.05.79 2.403.631 3.481.287.799 1.398 2.597 2.194 4.157 1.768l.162-.046c.165-.048.313-.097.428-.08.102.013.231.085.369.161l.152.084c.452.233.948.344 1.444.344 1.067 0 2.135-.509 2.76-1.389.809.177 1.539.16 2.174-.049.968-.318 1.676-1.105 1.803-2.004l.021-.184c.009-.093.022-.233.049-.269.026-.036.154-.092.239-.129l.099-.043c1.013-.456 1.778-1.462 2.102-2.759.27-1.093.208-2.198.146-3.266zm-6.271-5.461c.214-.008.414.023.56.101.443.237.573.917.604 1.444.103 1.768-.449 3.375-1.474 4.368a5.151 5.151 0 0 0-.773-1.048c.621-.823 1.219-1.619.732-2.714a1.719 1.719 0 0 0-1.496-1.006c.501-.682 1.185-1.112 1.847-1.145zm-2.503 2.37c.043-.022.087-.04.128-.078.24-.223.705-.177.92.006.338.288.361.8.165 1.167a4.92 4.92 0 0 1-.521.738c-.15-.12-.301-.236-.454-.347a3.055 3.055 0 0 0-.641-.342c.125-.383.253-.77.403-1.144zm-3.312 1.778c.151 0 .307.002.467.004l.632.003h.013c.573 0 1.389.174 1.851.509 1.052.764 1.764 1.49 2.067 2.751.098.401.117.87.063 1.473-.025.288-.067.623-.183.92-.542 1.394-2.539 1.702-3.373 1.771-1.162.096-2.033.001-2.737-.301-.522-.224-1.037-.595-1.619-1.168-.861-.851-1.324-1.642-1.414-2.419-.131-1.129.593-2.374 1.761-3.028.81-.456 1.572-.515 2.472-.515zm-2.455-1.301c.017.234.016.467-.005.7a4.759 4.759 0 0 0-.501.241 4.664 4.664 0 0 0-.7.491 2.527 2.527 0 0 1-.227-.681c-.05-.303-.125-.962.1-1.218.414-.471 1.081.051 1.333.467zm-3.077 2.612c-1.26-2.248-.713-4.128-.689-4.206.121-.398.446-.746.718-1.006.111-.107.231-.217.354-.288.318-.186.782-.176 1.181.035.373.194.702.545.979 1.04.049.087.083.182.126.273-.465-.146-.966-.135-1.39.135-1.109.706-.706 2.589-.14 3.583a4.262 4.262 0 0 0-.575 1.008c-.236-.163-.436-.345-.564-.574zm16.5 3.029c-.245.982-.821 1.764-1.627 2.126-.195.084-.462.2-.648.455-.188.257-.216.537-.237.763l-.016.14c-.073.518-.525.997-1.125 1.195-.538.177-1.197.156-1.96-.057a.498.498 0 0 0-.577.249c-.542 1.031-2.034 1.499-3.066.963l-.129-.07c-.193-.107-.435-.241-.729-.279-.317-.04-.604.044-.836.113l-.141.04c-1.257.343-2.706-.396-3.175-1.604a.498.498 0 0 0-.646-.285c-.729.28-2.082.656-2.955.001-.3-.226-.539-.574-.771-.911-.824-1.2-1.613-2.461-1.713-3.722a5.876 5.876 0 0 0 4.406 1.131c.271.693.743 1.382 1.456 2.086.675.664 1.287 1.102 1.929 1.376.772.33 1.6.418 2.313.418.329 0 .634-.019.898-.041 1.269-.104 3.504-.554 4.224-2.404.16-.414.214-.836.246-1.192.006-.064.01-.141.015-.213a10.91 10.91 0 0 0 5.031-2.211c.016.656-.013 1.312-.167 1.933z"/></svg>